<svg xmlns="http://www.w3.org/2000/svg" xmlns:xlink="http://www.w3.org/1999/xlink" width="166" zoomAndPan="magnify" viewBox="0 0 124.5 37.5" height="50" preserveAspectRatio="xMidYMid meet" version="1.0"><defs><g/><clipPath id="16414bce00"><path d="M 0.574219 0 L 37.726562 0 L 37.726562 37.007812 L 0.574219 37.007812 Z M 0.574219 0 " clip-rule="nonzero"/></clipPath></defs><g clip-path="url(#16414bce00)"><path fill="#3b82f6" d="M 7.960938 0.00390625 L 30.132812 0.00390625 C 30.617188 0.00390625 31.097656 0.0546875 31.574219 0.148438 C 32.050781 0.242188 32.511719 0.382812 32.960938 0.570312 C 33.410156 0.757812 33.835938 0.988281 34.238281 1.257812 C 34.640625 1.527344 35.015625 1.835938 35.359375 2.179688 C 35.699219 2.527344 36.007812 2.902344 36.277344 3.308594 C 36.546875 3.710938 36.773438 4.140625 36.960938 4.589844 C 37.144531 5.042969 37.285156 5.507812 37.378906 5.984375 C 37.476562 6.464844 37.523438 6.945312 37.523438 7.433594 L 37.523438 29.722656 C 37.523438 30.207031 37.476562 30.691406 37.378906 31.171875 C 37.285156 31.648438 37.144531 32.113281 36.960938 32.5625 C 36.773438 33.015625 36.546875 33.441406 36.277344 33.847656 C 36.007812 34.253906 35.699219 34.628906 35.359375 34.972656 C 35.015625 35.320312 34.640625 35.625 34.238281 35.898438 C 33.835938 36.167969 33.410156 36.398438 32.960938 36.585938 C 32.511719 36.769531 32.050781 36.910156 31.574219 37.007812 C 31.097656 37.101562 30.617188 37.148438 30.132812 37.148438 L 7.960938 37.148438 C 7.476562 37.148438 6.996094 37.101562 6.519531 37.007812 C 6.042969 36.910156 5.582031 36.769531 5.132812 36.585938 C 4.6875 36.398438 4.261719 36.167969 3.855469 35.898438 C 3.453125 35.625 3.078125 35.320312 2.738281 34.972656 C 2.394531 34.628906 2.085938 34.253906 1.816406 33.847656 C 1.546875 33.441406 1.320312 33.015625 1.136719 32.5625 C 0.949219 32.113281 0.808594 31.648438 0.714844 31.171875 C 0.621094 30.691406 0.574219 30.207031 0.574219 29.722656 L 0.574219 7.433594 C 0.574219 6.945312 0.621094 6.464844 0.714844 5.984375 C 0.808594 5.507812 0.949219 5.042969 1.136719 4.589844 C 1.320312 4.140625 1.546875 3.710938 1.816406 3.308594 C 2.085938 2.902344 2.394531 2.527344 2.738281 2.179688 C 3.078125 1.835938 3.453125 1.527344 3.855469 1.257812 C 4.261719 0.988281 4.6875 0.757812 5.132812 0.570312 C 5.582031 0.382812 6.042969 0.242188 6.519531 0.148438 C 6.996094 0.0546875 7.476562 0.00390625 7.960938 0.00390625 Z M 7.960938 0.00390625 " fill-opacity="1" fill-rule="nonzero"/></g><path fill="#ffffff" d="M 19.789062 7.109375 L 24.121094 7.109375 L 24.121094 21.734375 C 24.121094 23.078125 23.820312 24.269531 23.222656 25.304688 C 22.636719 26.328125 21.804688 27.121094 20.726562 27.683594 C 19.648438 28.246094 18.433594 28.523438 17.074219 28.523438 C 14.851562 28.523438 13.121094 27.960938 11.878906 26.828125 C 10.636719 25.6875 10.019531 24.074219 10.019531 21.996094 L 14.375 21.996094 C 14.375 23.03125 14.59375 23.796875 15.027344 24.289062 C 15.460938 24.78125 16.140625 25.027344 17.074219 25.027344 C 17.902344 25.027344 18.5625 24.742188 19.054688 24.171875 C 19.542969 23.601562 19.789062 22.789062 19.789062 21.734375 Z M 19.789062 7.109375 " fill-opacity="1" fill-rule="nonzero"/><g fill="#3b82f6" fill-opacity="1"><g transform="translate(48.331373, 23.982264)"><g><path d="M 5.84375 -11.515625 L 5.84375 -3.25 C 5.84375 -2.125 5.53125 -1.265625 4.90625 -0.671875 C 4.289062 -0.0859375 3.410156 0.203125 2.265625 0.203125 C 1.953125 0.203125 1.644531 0.164062 1.34375 0.09375 C 1.050781 0.0195312 0.800781 -0.0664062 0.59375 -0.171875 C 0.394531 -0.273438 0.210938 -0.382812 0.046875 -0.5 C -0.117188 -0.613281 -0.238281 -0.707031 -0.3125 -0.78125 L -0.4375 -0.890625 L 0.40625 -3.078125 C 0.957031 -2.554688 1.453125 -2.296875 1.890625 -2.296875 C 2.296875 -2.296875 2.617188 -2.425781 2.859375 -2.6875 C 3.097656 -2.957031 3.21875 -3.367188 3.21875 -3.921875 L 3.21875 -11.515625 Z M 5.84375 -11.515625 "/></g></g></g><g fill="#3b82f6" fill-opacity="1"><g transform="translate(58.111268, 23.982264)"><g><path d="M 0.328125 -5.765625 C 0.328125 -7.429688 0.890625 -8.835938 2.015625 -9.984375 C 3.148438 -11.140625 4.519531 -11.71875 6.125 -11.71875 C 7.738281 -11.71875 9.109375 -11.144531 10.234375 -10 C 11.359375 -8.851562 11.921875 -7.441406 11.921875 -5.765625 C 11.921875 -4.078125 11.363281 -2.660156 10.25 -1.515625 C 9.144531 -0.367188 7.769531 0.203125 6.125 0.203125 C 4.4375 0.203125 3.046875 -0.363281 1.953125 -1.5 C 0.867188 -2.632812 0.328125 -4.054688 0.328125 -5.765625 Z M 3.15625 -5.765625 C 3.15625 -5.160156 3.25 -4.609375 3.4375 -4.109375 C 3.625 -3.609375 3.945312 -3.1875 4.40625 -2.84375 C 4.875 -2.5 5.445312 -2.328125 6.125 -2.328125 C 7.101562 -2.328125 7.835938 -2.660156 8.328125 -3.328125 C 8.828125 -4.003906 9.078125 -4.816406 9.078125 -5.765625 C 9.078125 -6.703125 8.820312 -7.503906 8.3125 -8.171875 C 7.8125 -8.847656 7.082031 -9.1875 6.125 -9.1875 C 5.175781 -9.1875 4.441406 -8.847656 3.921875 -8.171875 C 3.410156 -7.503906 3.15625 -6.703125 3.15625 -5.765625 Z M 3.15625 -5.765625 "/></g></g></g><g fill="#3b82f6" fill-opacity="1"><g transform="translate(73.581773, 23.982264)"><g><path d="M 0.84375 -11.515625 L 4.40625 -11.515625 C 5.488281 -11.515625 6.347656 -11.28125 6.984375 -10.8125 C 7.628906 -10.351562 7.953125 -9.609375 7.953125 -8.578125 C 7.953125 -7.421875 7.472656 -6.597656 6.515625 -6.109375 C 8.148438 -5.816406 8.96875 -4.847656 8.96875 -3.203125 C 8.96875 -2.242188 8.632812 -1.46875 7.96875 -0.875 C 7.300781 -0.289062 6.378906 0 5.203125 0 L 0.84375 0 Z M 3.453125 -7 L 3.671875 -7 C 4.253906 -7 4.6875 -7.101562 4.96875 -7.3125 C 5.257812 -7.519531 5.40625 -7.851562 5.40625 -8.3125 C 5.40625 -9.09375 4.828125 -9.484375 3.671875 -9.484375 L 3.453125 -9.484375 Z M 3.453125 -2.015625 L 4.28125 -2.015625 C 5.5625 -2.015625 6.203125 -2.445312 6.203125 -3.3125 C 6.203125 -3.820312 6.039062 -4.1875 5.71875 -4.40625 C 5.40625 -4.632812 4.925781 -4.75 4.28125 -4.75 L 3.453125 -4.75 Z M 3.453125 -2.015625 "/></g></g></g><g fill="#3b82f6" fill-opacity="1"><g transform="translate(86.109342, 23.982264)"><g><path d="M 3.453125 -4.625 L 3.453125 0 L 0.84375 0 L 0.84375 -11.515625 L 3.453125 -11.515625 L 3.453125 -6.921875 L 7.171875 -6.921875 L 7.171875 -11.515625 L 9.796875 -11.515625 L 9.796875 0 L 7.171875 0 L 7.171875 -4.625 Z M 3.453125 -4.625 "/></g></g></g><g fill="#3b82f6" fill-opacity="1"><g transform="translate(99.975876, 23.982264)"><g><path d="M 9.6875 -11.515625 L 9.6875 -4.09375 C 9.6875 -2.675781 9.300781 -1.601562 8.53125 -0.875 C 7.769531 -0.15625 6.65625 0.203125 5.1875 0.203125 C 3.71875 0.203125 2.601562 -0.15625 1.84375 -0.875 C 1.082031 -1.601562 0.703125 -2.675781 0.703125 -4.09375 L 0.703125 -11.515625 L 3.328125 -11.515625 L 3.328125 -4.859375 C 3.328125 -3.921875 3.472656 -3.269531 3.765625 -2.90625 C 4.054688 -2.550781 4.53125 -2.375 5.1875 -2.375 C 5.851562 -2.375 6.332031 -2.550781 6.625 -2.90625 C 6.914062 -3.269531 7.0625 -3.921875 7.0625 -4.859375 L 7.0625 -11.515625 Z M 9.6875 -11.515625 "/></g></g></g><g fill="#3b82f6" fill-opacity="1"><g transform="translate(113.591351, 23.982264)"><g><path d="M 0.84375 -11.515625 L 4.40625 -11.515625 C 5.488281 -11.515625 6.347656 -11.28125 6.984375 -10.8125 C 7.628906 -10.351562 7.953125 -9.609375 7.953125 -8.578125 C 7.953125 -7.421875 7.472656 -6.597656 6.515625 -6.109375 C 8.148438 -5.816406 8.96875 -4.847656 8.96875 -3.203125 C 8.96875 -2.242188 8.632812 -1.46875 7.96875 -0.875 C 7.300781 -0.289062 6.378906 0 5.203125 0 L 0.84375 0 Z M 3.453125 -7 L 3.671875 -7 C 4.253906 -7 4.6875 -7.101562 4.96875 -7.3125 C 5.257812 -7.519531 5.40625 -7.851562 5.40625 -8.3125 C 5.40625 -9.09375 4.828125 -9.484375 3.671875 -9.484375 L 3.453125 -9.484375 Z M 3.453125 -2.015625 L 4.28125 -2.015625 C 5.5625 -2.015625 6.203125 -2.445312 6.203125 -3.3125 C 6.203125 -3.820312 6.039062 -4.1875 5.71875 -4.40625 C 5.40625 -4.632812 4.925781 -4.75 4.28125 -4.75 L 3.453125 -4.75 Z M 3.453125 -2.015625 "/></g></g></g></svg>